<?xml version="1.0" encoding="iso-8859-1"?>
<!-- Generator: Adobe Illustrator 19.0.0, SVG Export Plug-In . SVG Version: 6.00 Build 0)  -->
<svg version="1.1" id="Layer_1" xmlns="http://www.w3.org/2000/svg" xmlns:xlink="http://www.w3.org/1999/xlink" x="0px" y="0px"
	 viewBox="0 0 491.575 491.575" style="enable-background:new 0 0 491.575 491.575;" xml:space="preserve">
<path style="fill:#0CD3E2;" d="M245.784,395.225c-10.878,0-19.692-8.814-19.692-19.692V116.074c0-10.878,8.814-19.692,19.692-19.692
	c10.878,0,19.692,8.814,19.692,19.692v259.45C265.476,386.41,256.662,395.225,245.784,395.225z"/>
<circle style="fill:#185EC4;" cx="245.799" cy="75.303" r="55.611"/>
<path style="fill:#0CD3E2;" d="M245.799,150.591h-0.016c-41.496,0-75.28-33.776-75.28-75.288c0-41.519,33.768-75.296,75.264-75.296
	c41.519,0,75.319,33.776,75.319,75.296C321.079,116.815,287.295,150.583,245.799,150.591z M245.784,39.4
	c-9.586,0-18.597,3.734-25.387,10.516c-6.782,6.774-10.508,15.793-10.508,25.387c0,19.803,16.108,35.911,35.895,35.911
	c19.803-0.008,35.911-16.116,35.927-35.911C281.71,55.509,265.586,39.4,245.784,39.4z"/>
<circle style="fill:#185EC4;" cx="245.799" cy="416.327" r="55.611"/>
<path style="fill:#0CD3E2;" d="M245.815,491.567h-0.032c-20.11,0-39.014-7.83-53.232-22.047
	c-14.218-14.218-22.048-33.122-22.048-53.24c0-20.102,7.83-38.999,22.048-53.224C206.769,348.83,225.658,341,245.768,341
	c41.535,0,75.319,33.768,75.319,75.288C321.095,457.799,287.319,491.559,245.815,491.567z M245.815,380.392
	c-9.633,0-18.629,3.734-25.419,10.516c-6.766,6.774-10.508,15.793-10.508,25.379c0,9.602,3.742,18.613,10.508,25.395
	c6.766,6.782,15.785,10.508,25.372,10.508l0.047,19.692v-19.692c19.787,0,35.895-16.1,35.895-35.895
	C281.71,396.501,265.602,380.392,245.815,380.392z"/>
<path style="fill:#0CD3E2;" d="M375.524,265.492H116.059c-10.878,0-19.692-8.814-19.692-19.692s8.814-19.692,19.692-19.692h259.458
	c10.878,0,19.692,8.814,19.692,19.692S386.402,265.492,375.524,265.492z"/>
<circle style="fill:#185EC4;" cx="416.319" cy="245.799" r="55.611"/>
<path style="fill:#0CD3E2;" d="M416.28,321.087c-41.511,0-75.28-33.768-75.28-75.288s33.753-75.288,75.264-75.288
	c20.141,0,39.046,7.83,53.264,22.048c14.218,14.218,22.048,33.122,22.048,53.24C491.567,287.311,457.799,321.087,416.28,321.087z
	 M416.288,209.896c-19.818,0-35.911,16.108-35.911,35.903c0,19.795,16.108,35.903,35.895,35.903
	c19.803,0,35.911-16.108,35.911-35.903S436.09,209.896,416.288,209.896z"/>
<circle style="fill:#185EC4;" cx="75.296" cy="245.792" r="55.611"/>
<path style="fill:#0CD3E2;" d="M75.319,321.087c-41.519,0-75.311-33.768-75.319-75.28c0-41.519,33.784-75.303,75.296-75.303
	c41.519,0.008,75.296,33.784,75.296,75.296C150.583,287.311,116.831,321.087,75.319,321.087z M75.288,209.889
	c-19.803,0-35.911,16.108-35.911,35.911c0.016,19.795,16.124,35.903,35.927,35.903h0.016c19.787,0,35.879-16.108,35.879-35.903
	S95.09,209.896,75.288,209.889z"/>
<path style="fill:#0CD3E2;" d="M97.445,413.838c-5.049,0-10.075-1.922-13.926-5.766c-7.696-7.688-7.696-20.157,0-27.845
	L380.211,83.519c7.696-7.696,20.157-7.696,27.845,0c7.696,7.688,7.696,20.157,0,27.845L111.372,408.072
	C107.52,411.916,102.495,413.838,97.445,413.838z"/>
<path style="fill:#0CD3E2;" d="M394.138,413.83c-5.033,0-10.075-1.922-13.926-5.766L83.503,111.372
	c-7.696-7.688-7.696-20.157,0-27.845s20.157-7.696,27.861,0l296.692,296.692c7.696,7.688,7.696,20.157,0,27.845
	C404.212,411.908,399.187,413.83,394.138,413.83z"/>
<g>
</g>
<g>
</g>
<g>
</g>
<g>
</g>
<g>
</g>
<g>
</g>
<g>
</g>
<g>
</g>
<g>
</g>
<g>
</g>
<g>
</g>
<g>
</g>
<g>
</g>
<g>
</g>
<g>
</g>
</svg>
