<?xml version="1.0" encoding="iso-8859-1"?>
<!-- Generator: Adobe Illustrator 19.0.0, SVG Export Plug-In . SVG Version: 6.00 Build 0)  -->
<svg version="1.1" id="Layer_1" xmlns="http://www.w3.org/2000/svg" xmlns:xlink="http://www.w3.org/1999/xlink" x="0px" y="0px"
	 viewBox="0 0 511.992 511.992" style="enable-background:new 0 0 511.992 511.992;" xml:space="preserve">
<path d="m432.563 313.22-78.035-154.602v-55.382l30.083-103.236h-83.979c-17.744 0-33.701 7.788-44.635 20.128-10.934-12.34-26.892-20.128-44.636-20.128h-83.979l30.083 103.239v55.38l-78.036 154.601c-21.604 42.801-19.5 92.731 5.628 133.563 25.129 40.832 68.755 65.209 116.699 65.209h108.479c47.944 0 91.57-24.377 116.699-65.209s27.233-90.762 5.629-133.563zm-221.202-283.22c16.341 0 29.636 13.295 29.636 29.636h30c0-16.341 13.294-29.636 29.635-29.636h43.989l-16.346 56.094-144.557.002-16.346-56.096zm113.167 86.094v31.095h-137.064v-31.092zm76.857 314.966c-19.627 31.893-53.701 50.933-91.149 50.933h-108.48c-37.448 0-71.522-19.04-91.149-50.933s-21.271-70.892-4.396-104.322l75.485-149.549h148.602l75.485 149.549c16.873 33.43 15.229 72.429-4.398 104.322z"/>
<circle style="fill:#185EC4;" cx="245.799" cy="75.303" r="55.611"/>
<path d="m276.013 308.204h-32.175c-7.243 0-13.136-5.893-13.136-13.136s5.893-13.136 13.136-13.136h54.323v-30h-27.177v-20.239h-30v20.344c-22.459 1.475-40.282 20.206-40.282 43.031 0 23.785 19.351 43.136 43.136 43.136h32.175c7.871 0 14.274 6.403 14.274 14.274s-6.403 14.274-14.274 14.274h-69.332v30h34.304v20.239h30v-20.239h5.028c24.413 0 44.274-19.861 44.274-44.274s-19.861-44.274-44.274-44.274z"/>
<g>
</g>
</svg>
