<?xml version="1.0" encoding="iso-8859-1"?>
<!-- Generator: Adobe Illustrator 19.0.0, SVG Export Plug-In . SVG Version: 6.00 Build 0)  -->
<svg version="1.1" id="Layer_1" xmlns="http://www.w3.org/2000/svg" xmlns:xlink="http://www.w3.org/1999/xlink" x="0px" y="0px"
	 viewBox="0 0 483.123 483.123" style="enable-background:new 0 0 483.123 483.123;" xml:space="preserve">
<path style="fill:#114935;" d="M103.448,111.679c-10.878,0-19.692-8.814-19.692-19.692V19.692C83.755,8.814,92.57,0,103.448,0
	s19.692,8.814,19.692,19.692v72.294C123.14,102.865,114.326,111.679,103.448,111.679z"/>
<polyline style="fill:#15ED0F;" points="103.448,93.263 379.676,93.263 379.676,165.557 "/>
<path style="fill:#114935;" d="M379.676,185.249c-10.878,0-19.692-8.814-19.692-19.692v-52.602H103.448
	c-10.878,0-19.692-8.814-19.692-19.692S92.57,73.57,103.448,73.57h276.228c10.878,0,19.692,8.814,19.692,19.692v72.294
	C399.368,176.427,390.554,185.249,379.676,185.249z"/>
<polyline style="fill:#15ED0F;" points="379.676,168.629 103.448,168.629 103.448,240.924 "/>
<path style="fill:#114935;" d="M103.448,260.616c-10.878,0-19.692-8.814-19.692-19.692v-72.294c0-10.878,8.814-19.692,19.692-19.692
	h276.228c10.878,0,19.692,8.814,19.692,19.692s-8.814,19.692-19.692,19.692H123.14v52.602
	C123.14,251.802,114.326,260.616,103.448,260.616z"/>
<polyline style="fill:#15ED0F;" points="103.448,242.2 379.676,242.2 379.676,314.494 "/>
<path style="fill:#114935;" d="M379.676,334.186c-10.878,0-19.692-8.814-19.692-19.692v-52.602H103.448
	c-10.878,0-19.692-8.814-19.692-19.692s8.814-19.692,19.692-19.692h276.228c10.878,0,19.692,8.814,19.692,19.692v72.294
	C399.368,325.372,390.554,334.186,379.676,334.186z"/>
<polyline style="fill:#15ED0F;" points="379.676,317.55 103.448,317.55 103.448,389.845 "/>
<path style="fill:#114935;" d="M103.448,409.537c-10.878,0-19.692-8.814-19.692-19.692V317.55c0-10.878,8.814-19.692,19.692-19.692
	h276.228c10.878,0,19.692,8.814,19.692,19.692c0,10.878-8.814,19.692-19.692,19.692H123.14v52.602
	C123.14,400.723,114.326,409.537,103.448,409.537z"/>
<polyline style="fill:#15ED0F;" points="103.448,391.136 379.676,391.136 379.676,463.431 "/>
<path style="fill:#114935;" d="M379.676,483.123c-10.878,0-19.692-8.814-19.692-19.692v-52.602H103.448
	c-10.878,0-19.692-8.814-19.692-19.692c0-10.878,8.814-19.692,19.692-19.692h276.228c10.878,0,19.692,8.814,19.692,19.692v72.294
	C399.368,474.309,390.554,483.123,379.676,483.123z"/>
<g>
</g>
<g>
</g>
<g>
</g>
<g>
</g>
<g>
</g>
<g>
</g>
<g>
</g>
<g>
</g>
<g>
</g>
<g>
</g>
<g>
</g>
<g>
</g>
<g>
</g>
<g>
</g>
<g>
</g>
</svg>
