<?xml version="1.0" encoding="iso-8859-1"?>
<!-- Generator: Adobe Illustrator 19.0.0, SVG Export Plug-In . SVG Version: 6.00 Build 0)  -->
<svg version="1.1" id="Layer_1" xmlns="http://www.w3.org/2000/svg" xmlns:xlink="http://www.w3.org/1999/xlink" x="0px" y="0px"
	 viewBox="0 0 512 512" style="enable-background:new 0 0 512 512;" xml:space="preserve">
<path d="m253.923 482-46.882-81.201h48.959l11.419-15.593-11.419-14.407h-66.279l-66.279-114.799 66.279-114.799h66.279l11.419-14.194-11.419-15.805h-48.959l46.882-81.202h2.077l11.419-13.688-11.419-16.312h-19.397l-64.202 111.202h-137.621v51.231l54.021 93.567-54.021 93.567v51.231h137.621l64.202 111.202h19.397l11.419-14.429-11.419-15.571zm-189.143-327.605v-13.193h90.3l-48.959 84.798zm0 216.404v-13.193l41.341-71.606 48.959 84.799z" fill="#66b3ff"/>
<circle style="fill:#185EC4;" cx="245.799" cy="75.303" r="55.611"/>
<path d="m477.22 111.202h-137.62l-64.203-111.202h-19.397v30h2.077l46.882 81.202h-48.959v30h66.28l66.279 114.798-66.279 114.799h-66.28v30h48.959l-46.882 81.201h-2.077v30h19.397l64.203-111.201h137.62v-51.232l-54.021-93.567 54.021-93.567zm-30 246.403v13.194h-90.3l48.959-84.799zm0-203.209-41.341 71.604-48.959-84.799h90.3z" fill="#4d88ff"/>
<g>
</g>
</svg>
