<?xml version="1.0" encoding="iso-8859-1"?>
<!-- Generator: Adobe Illustrator 19.0.0, SVG Export Plug-In . SVG Version: 6.00 Build 0)  -->
<svg version="1.1" id="Layer_1" xmlns="http://www.w3.org/2000/svg" xmlns:xlink="http://www.w3.org/1999/xlink" x="0px" y="0px"
	 viewBox="0 0 488.353 488.353" style="enable-background:new 0 0 488.353 488.353;" xml:space="preserve">
<polyline style="fill:#45FFE0;" points="154.506,186.951 154.506,312.966 333.848,312.966 333.848,468.661 246.603,468.661 "/>
<path style="fill:#59264D;" d="M333.848,488.353h-87.245c-10.878,0-19.692-8.814-19.692-19.692c0-10.878,8.814-19.692,19.692-19.692
	h67.552V332.658H154.506c-10.878,0-19.692-8.814-19.692-19.692V186.951c0-10.878,8.814-19.692,19.692-19.692
	c10.878,0,19.692,8.814,19.692,19.692v106.323h159.649c10.878,0,19.692,8.814,19.692,19.692v155.695
	C353.54,479.539,344.726,488.353,333.848,488.353z"/>
<polyline style="fill:#FF4382;" points="333.848,301.403 333.848,175.372 154.506,175.372 154.506,19.692 241.766,19.692 "/>
<path style="fill:#59264D;" d="M333.848,321.095c-10.878,0-19.692-8.814-19.692-19.692V195.064H154.506
	c-10.878,0-19.692-8.814-19.692-19.692V19.692C134.814,8.814,143.628,0,154.506,0h87.261c10.878,0,19.692,8.814,19.692,19.692
	s-8.814,19.692-19.692,19.692h-67.568V155.68h159.65c10.878,0,19.692,8.814,19.692,19.692v126.031
	C353.54,312.281,344.726,321.095,333.848,321.095z"/>
<path style="fill:#59264D;" d="M244.177,271.746c-10.886,0-19.7-8.814-19.7-19.692V236.3c0-10.878,8.814-19.692,19.7-19.692
	c10.878,0,19.684,8.814,19.684,19.692v15.754C263.861,262.932,255.055,271.746,244.177,271.746z"/>
<g>
</g>
<g>
</g>
<g>
</g>
<g>
</g>
<g>
</g>
<g>
</g>
<g>
</g>
<g>
</g>
<g>
</g>
<g>
</g>
<g>
</g>
<g>
</g>
<g>
</g>
<g>
</g>
<g>
</g>
</svg>
