<?xml version="1.0" encoding="iso-8859-1"?>
<!-- Generator: Adobe Illustrator 19.0.0, SVG Export Plug-In . SVG Version: 6.00 Build 0)  -->
<svg version="1.1" id="Layer_1" xmlns="http://www.w3.org/2000/svg" xmlns:xlink="http://www.w3.org/1999/xlink" x="0px" y="0px"
	 viewBox="0 0 497.014 497.014" style="enable-background:new 0 0 497.014 497.014;" xml:space="preserve">
<path style="fill:#FF7F00;" d="M248.995,19.255c-89.608,19.133-158.46,131.812-158.46,268.367
	c0,136.546,68.852,182.918,158.46,190.125"/>
<path style="fill:#6D3007;" d="M249.019,497.014c-0.52,0-1.04-0.024-1.568-0.063C130.55,487.546,71.276,417.118,71.276,287.63
	c0-144.928,73.051-265.712,173.702-287.208c10.405-2.198,20.645,4.419,22.859,14.824c2.221,10.398-4.419,20.63-14.824,22.859
	C171.376,55.528,109.81,162.804,109.81,287.63c0,108.875,44.717,163.202,140.729,170.913c10.61,0.859,18.519,10.145,17.66,20.748
	C267.38,489.373,258.96,497.014,249.019,497.014z"/>
<path style="fill:#FF4800;" d="M248.066,19.255c89.553,19.133,158.405,131.812,158.405,268.367
	c0,136.546-68.852,182.918-158.405,190.125"/>
<path style="fill:#6D3007;" d="M248.042,497.014c-9.941,0-18.369-7.641-19.18-17.723c-0.851-10.602,7.05-19.881,17.66-20.748
	c95.972-7.719,140.674-62.039,140.674-170.913c0-124.818-61.542-232.101-143.163-249.525c-10.398-2.229-17.038-12.461-14.816-22.867
	c2.221-10.405,12.469-16.975,22.867-14.816C352.711,21.917,425.738,142.702,425.738,287.63c0,129.489-59.25,199.916-176.12,209.321
	C249.09,496.99,248.57,497.014,248.042,497.014z"/>
<path style="fill:#FFCE55;" d="M248.822,188.057c-56.619,12.075-100.124,83.283-100.124,169.559
	c0,86.284,43.504,115.586,100.124,120.131"/>
<path style="fill:#6D3007;" d="M248.846,497.014c-0.512,0-1.04-0.024-1.56-0.063c-77.099-6.191-117.847-54.367-117.847-139.327
	c0-94.909,48.522-174.143,115.365-188.408c10.405-2.198,20.638,4.419,22.859,14.824c2.213,10.405-4.427,20.645-14.832,22.859
	c-48.388,10.319-84.866,75.114-84.866,150.725c0,65.221,25.411,96.343,82.4,100.919c10.602,0.851,18.511,10.145,17.66,20.748
	C267.215,489.366,258.786,497.014,248.846,497.014z"/>
<path style="fill:#FFD561;" d="M248.239,188.057c56.588,12.075,100.076,83.283,100.076,169.559
	c0,86.284-43.488,115.586-100.076,120.131"/>
<path style="fill:#6D3007;" d="M248.216,497.014c-9.941,0-18.369-7.641-19.188-17.723c-0.843-10.602,7.058-19.889,17.66-20.748
	c56.958-4.577,82.353-35.698,82.353-100.919c0-75.611-36.462-140.406-84.834-150.725c-10.405-2.213-17.038-12.461-14.824-22.859
	c2.221-10.413,12.485-17.022,22.859-14.824c66.82,14.273,115.326,93.499,115.326,188.408c0,84.96-40.732,133.136-117.799,139.327
	C249.255,496.99,248.728,497.014,248.216,497.014z"/>
<g>
</g>
<g>
</g>
<g>
</g>
<g>
</g>
<g>
</g>
<g>
</g>
<g>
</g>
<g>
</g>
<g>
</g>
<g>
</g>
<g>
</g>
<g>
</g>
<g>
</g>
<g>
</g>
<g>
</g>
</svg>
