<?xml version="1.0" encoding="iso-8859-1"?>
<!-- Generator: Adobe Illustrator 19.0.0, SVG Export Plug-In . SVG Version: 6.00 Build 0)  -->
<svg version="1.1" id="Layer_1" xmlns="http://www.w3.org/2000/svg" xmlns:xlink="http://www.w3.org/1999/xlink" x="0px" y="0px"
	 viewBox="0 0 503.857 503.857" style="enable-background:new 0 0 503.857 503.857;" xml:space="preserve">
<polygon style="fill:#43FFE4;" points="19.704,453.063 251.932,453.063 135.818,251.934 "/>
<path style="fill:#5A407A;" d="M251.932,472.755H19.704c-7.042,0-13.54-3.757-17.054-9.846c-3.521-6.089-3.521-13.603,0-19.692
	l116.122-201.121c3.513-6.089,10.012-9.846,17.046-9.846l0,0c7.05,0,13.548,3.757,17.061,9.846l116.106,201.121
	c3.513,6.089,3.513,13.603,0,19.692C265.472,468.998,258.974,472.755,251.932,472.755z M53.811,433.371h164.013l-82.007-142.052
	L53.811,433.371z"/>
<polygon style="fill:#43FFE4;" points="368.045,251.926 251.932,453.063 484.175,453.063 "/>
<path style="fill:#5A407A;" d="M484.175,472.755H251.932c-7.042,0-13.54-3.757-17.054-9.846c-3.521-6.089-3.521-13.603,0-19.692
	L351,242.08c3.513-6.097,10.019-9.846,17.046-9.846c7.05,0,13.548,3.757,17.061,9.846l116.122,201.137
	c3.505,6.089,3.505,13.603,0,19.692C497.707,468.998,491.217,472.755,484.175,472.755z M286.031,433.371H450.06l-82.015-142.06
	L286.031,433.371z"/>
<polygon style="fill:#43FFE4;" points="19.696,50.796 135.818,251.934 251.932,50.796 "/>
<path style="fill:#5A407A;" d="M135.818,271.626c-7.034,0-13.533-3.757-17.046-9.846L2.635,60.643
	c-3.513-6.089-3.513-13.603,0-19.692s10.012-9.846,17.061-9.846h232.235c7.042,0,13.54,3.757,17.054,9.846s3.513,13.603,0,19.692
	L152.879,261.78C149.358,267.877,142.86,271.626,135.818,271.626z M53.795,70.489l82.022,142.06l82.007-142.06H53.795z"/>
<polygon style="fill:#43FFE4;" points="484.151,50.796 251.932,50.796 368.045,251.926 "/>
<path style="fill:#5A407A;" d="M368.045,271.618c-7.034,0-13.533-3.757-17.046-9.846L234.878,60.643
	c-3.521-6.089-3.521-13.603,0-19.692c3.513-6.089,10.012-9.846,17.054-9.846h232.22c7.05,0,13.548,3.757,17.061,9.846
	c3.513,6.089,3.513,13.603,0,19.692L385.107,261.772C381.594,267.861,375.095,271.618,368.045,271.618z M286.031,70.489
	l82.014,142.052l82.007-142.052H286.031z"/>
<polygon style="fill:#FF64BD;" points="251.932,50.796 135.818,251.934 251.932,453.063 368.045,251.926 "/>
<path style="fill:#5A407A;" d="M251.932,472.755L251.932,472.755c-7.042,0-13.54-3.757-17.054-9.846L118.772,261.788
	c-3.513-6.089-3.513-13.603,0-19.692L234.878,40.958c3.513-6.089,10.012-9.846,17.054-9.846s13.54,3.757,17.054,9.846
	L385.107,242.08c3.505,6.089,3.505,13.603,0,19.692L268.985,462.909C265.472,468.998,258.974,472.755,251.932,472.755z
	 M158.559,251.934l93.373,161.737l93.381-161.745L251.932,90.181L158.559,251.934z"/>
<polyline style="fill:#DD4394;" points="251.932,453.063 368.045,251.926 251.932,50.796 "/>
<path style="fill:#5A407A;" d="M251.916,472.755c-3.348,0-6.727-0.843-9.83-2.639c-9.413-5.435-12.65-17.487-7.207-26.9
	l110.434-191.291L234.878,60.643c-5.443-9.413-2.206-21.465,7.207-26.9c9.397-5.435,21.472-2.213,26.9,7.207L385.107,242.08
	c3.505,6.089,3.505,13.603,0,19.692L268.985,462.909C265.338,469.219,258.706,472.755,251.916,472.755z"/>
<g>
	<circle style="fill:#43FFE4;" cx="53.496" cy="219.922" r="8.365"/>
	<circle style="fill:#43FFE4;" cx="53.496" cy="251.926" r="8.365"/>
	<circle style="fill:#43FFE4;" cx="53.496" cy="283.922" r="8.365"/>
</g>
<g>
</g>
<g>
</g>
<g>
</g>
<g>
</g>
<g>
</g>
<g>
</g>
<g>
</g>
<g>
</g>
<g>
</g>
<g>
</g>
<g>
</g>
<g>
</g>
<g>
</g>
<g>
</g>
<g>
</g>
</svg>
