<?xml version="1.0" encoding="iso-8859-1"?>
<!-- Generator: Adobe Illustrator 19.0.0, SVG Export Plug-In . SVG Version: 6.00 Build 0)  -->
<svg version="1.1" id="Layer_1" xmlns="http://www.w3.org/2000/svg" xmlns:xlink="http://www.w3.org/1999/xlink" x="0px" y="0px"
	 viewBox="0 0 505.154 505.154" style="enable-background:new 0 0 505.154 505.154;" xml:space="preserve">
<polygon style="fill:#E4E892;" points="123.926,78.382 19.699,182.594 148.36,182.594 188.249,142.705 "/>
<path style="fill:#FF9100;" d="M148.36,202.286H19.699c-7.971,0-15.155-4.797-18.196-12.154c-3.056-7.365-1.363-15.833,4.269-21.465
	L110,64.456c7.696-7.696,20.157-7.696,27.845,0l64.323,64.323c3.694,3.694,5.766,8.696,5.766,13.926s-2.079,10.232-5.766,13.926
	l-39.889,39.889C158.585,200.214,153.591,202.286,148.36,202.286z M67.244,162.901h72.964l20.196-20.196l-36.478-36.478
	L67.244,162.901z"/>
<polygon style="fill:#5BF486;" points="252.588,78.382 188.249,142.705 228.154,182.594 277.006,182.594 316.911,142.705 "/>
<path style="fill:#FF9100;" d="M277.006,202.286h-48.845c-5.222,0-10.232-2.08-13.926-5.758l-39.904-39.889
	c-3.694-3.702-5.766-8.704-5.766-13.934s2.08-10.232,5.766-13.926l64.339-64.323c7.696-7.696,20.157-7.696,27.845,0l64.323,64.323
	c3.694,3.694,5.766,8.696,5.766,13.926s-2.079,10.232-5.766,13.934l-39.904,39.889C287.231,200.214,282.229,202.286,277.006,202.286
	z M236.314,162.901h32.54l20.204-20.196l-36.47-36.478l-36.486,36.478L236.314,162.901z"/>
<polygon style="fill:#E4E892;" points="381.234,78.382 316.911,142.705 356.815,182.594 485.461,182.594 "/>
<path style="fill:#FF9100;" d="M485.461,202.286H356.815c-5.23,0-10.232-2.08-13.926-5.758l-39.904-39.889
	c-3.694-3.702-5.766-8.704-5.766-13.934s2.08-10.232,5.766-13.926l64.323-64.323c7.696-7.696,20.157-7.696,27.845,0L499.38,168.667
	c5.632,5.632,7.318,14.1,4.261,21.465C500.609,197.489,493.425,202.286,485.461,202.286z M364.976,162.901h72.94l-56.674-56.674
	l-36.478,36.478L364.976,162.901z"/>
<polygon style="fill:#E4E892;" points="381.234,426.778 485.461,322.566 356.815,322.566 316.911,362.455 "/>
<path style="fill:#FF9100;" d="M381.234,446.471c-5.049,0-10.075-1.922-13.926-5.766l-64.323-64.323
	c-3.694-3.694-5.766-8.696-5.766-13.926s2.08-10.232,5.766-13.934l39.904-39.889c3.694-3.686,8.696-5.758,13.926-5.758h128.646
	c7.964,0,15.147,4.797,18.188,12.154c3.056,7.365,1.371,15.833-4.261,21.465L395.16,440.705
	C391.308,444.549,386.283,446.471,381.234,446.471z M344.756,362.455l36.478,36.478l56.674-56.674h-72.94L344.756,362.455z"/>
<polygon style="fill:#5BF486;" points="252.588,426.778 316.911,362.455 277.006,322.566 228.154,322.566 188.249,362.455 "/>
<path style="fill:#FF9100;" d="M252.588,446.471c-5.049,0-10.075-1.922-13.926-5.766l-64.339-64.323
	c-3.694-3.694-5.766-8.696-5.766-13.926s2.08-10.232,5.766-13.934l39.904-39.889c3.694-3.686,8.696-5.758,13.926-5.758h48.845
	c5.222,0,10.232,2.079,13.926,5.758l39.904,39.889c3.694,3.702,5.766,8.704,5.766,13.934s-2.079,10.232-5.766,13.926l-64.323,64.323
	C262.662,444.549,257.637,446.471,252.588,446.471z M216.102,362.455l36.486,36.478l36.47-36.478l-20.204-20.196h-32.54
	L216.102,362.455z"/>
<polygon style="fill:#E4E892;" points="123.926,426.778 188.249,362.455 148.36,322.566 19.699,322.566 "/>
<path style="fill:#FF9100;" d="M123.926,446.471c-5.041,0-10.075-1.922-13.926-5.766L5.772,336.485
	c-5.632-5.632-7.326-14.1-4.269-21.465c3.04-7.357,10.224-12.154,18.196-12.154H148.36c5.23,0,10.232,2.079,13.926,5.766
	l39.889,39.889c3.694,3.694,5.766,8.696,5.766,13.926s-2.079,10.232-5.766,13.926l-64.323,64.323
	C134.001,444.549,128.975,446.471,123.926,446.471z M67.244,342.259l56.682,56.674l36.478-36.478l-20.196-20.196H67.244z"/>
<path style="fill:#FF9100;" d="M387.803,272.272H117.357c-10.878,0-19.692-8.814-19.692-19.692s8.814-19.692,19.692-19.692h270.446
	c10.878,0,19.692,8.814,19.692,19.692S398.681,272.272,387.803,272.272z"/>
<g>
</g>
<g>
</g>
<g>
</g>
<g>
</g>
<g>
</g>
<g>
</g>
<g>
</g>
<g>
</g>
<g>
</g>
<g>
</g>
<g>
</g>
<g>
</g>
<g>
</g>
<g>
</g>
<g>
</g>
</svg>
