<?xml version="1.0" encoding="iso-8859-1"?>
<!-- Generator: Adobe Illustrator 19.0.0, SVG Export Plug-In . SVG Version: 6.00 Build 0)  -->
<svg version="1.1" id="Layer_1" xmlns="http://www.w3.org/2000/svg" xmlns:xlink="http://www.w3.org/1999/xlink" x="0px" y="0px"
	 viewBox="0 0 499.003 499.003" style="enable-background:new 0 0 499.003 499.003;" xml:space="preserve">
<path style="fill:#41E09F;" d="M375.556,150.095c54.91,0,99.399,44.505,99.415,99.399c0,54.894-44.505,99.399-99.415,99.399"/>
<path style="fill:#475651;" d="M375.556,368.585c-10.878,0-19.692-8.814-19.692-19.692c0-10.878,8.814-19.692,19.692-19.692
	c43.961,0,79.722-35.753,79.722-79.707c-0.016-43.945-35.777-79.707-79.722-79.707c-10.878,0-19.692-8.814-19.692-19.692
	s8.814-19.692,19.692-19.692c65.662,0,119.091,53.421,119.107,119.083C494.663,315.164,441.234,368.585,375.556,368.585z"/>
<path style="fill:#41E09F;" d="M123.447,348.908c-54.91,0-99.399-44.505-99.415-99.399c0-54.894,44.505-99.399,99.415-99.399"/>
<path style="fill:#475651;" d="M123.447,368.601c-65.662,0-119.091-53.421-119.107-119.083c0-65.678,53.429-119.099,119.107-119.099
	c10.878,0,19.692,8.814,19.692,19.692s-8.814,19.692-19.692,19.692c-43.961,0-79.722,35.753-79.722,79.707
	c0.016,43.945,35.777,79.707,79.722,79.707c10.878,0,19.692,8.814,19.692,19.692C143.139,359.786,134.325,368.601,123.447,368.601z"
	/>
<path style="fill:#9AC1B2;" d="M150.095,241.845c0-54.91,44.505-99.399,99.407-99.415c54.886,0,99.391,44.505,99.391,99.415"/>
<path style="fill:#475651;" d="M348.893,261.537c-10.862,0-19.692-8.814-19.692-19.692c0-43.961-35.753-79.722-79.699-79.722
	c-43.961,0.016-79.714,35.777-79.714,79.722c0,10.878-8.814,19.692-19.692,19.692s-19.692-8.814-19.692-19.692
	c0-65.662,53.413-119.091,119.091-119.107c65.662,0,119.091,53.429,119.091,119.107
	C368.585,252.715,359.778,261.537,348.893,261.537z"/>
<path style="fill:#9AC1B2;" d="M179.208,109.214c38.81-38.865,101.762-38.833,140.564-0.032"/>
<path style="fill:#475651;" d="M179.208,128.906c-5.041,0-10.067-1.922-13.919-5.758c-7.696-7.688-7.712-20.157-0.016-27.845
	c22.481-22.512,52.382-34.918,84.212-34.918c31.807,0,61.716,12.383,84.196,34.879c7.696,7.696,7.696,20.157,0,27.845
	c-7.696,7.688-20.157,7.696-27.845,0c-15.061-15.045-35.06-23.339-56.352-23.339s-41.307,8.302-56.352,23.363
	C189.29,126.984,184.257,128.906,179.208,128.906z"/>
<path style="fill:#475651;" d="M249.509,98.044c-10.878,0-19.692-8.814-19.692-19.692V19.692C229.817,8.814,238.631,0,249.509,0
	c10.878,0,19.692,8.814,19.692,19.692v58.659C269.202,89.23,260.387,98.044,249.509,98.044z"/>
<path style="fill:#41E09F;" d="M203.863,252.188c0-25.198,20.433-45.631,45.647-45.631c25.175-0.016,45.615,20.417,45.615,45.615"/>
<path style="fill:#475651;" d="M203.863,271.88c-10.878,0-19.692-8.814-19.692-19.692c0-36.021,29.31-65.323,65.339-65.323
	c0.016,0,0.032,0,0.032,0c17.416,0,33.808,6.782,46.135,19.117c12.343,12.335,19.141,28.743,19.141,46.19
	c0,10.878-8.814,19.692-19.692,19.692c-10.878,0-19.692-8.814-19.692-19.692c0-6.924-2.702-13.438-7.601-18.337
	c-4.892-4.892-11.382-7.585-18.29-7.585h-0.016c-14.32,0-25.97,11.642-25.97,25.939C223.555,263.066,214.741,271.88,203.863,271.88z
	"/>
<path style="fill:#41E09F;" d="M114.168,176.861c0-17.936,14.549-32.477,32.477-32.477"/>
<path style="fill:#475651;" d="M114.168,196.553c-10.878,0-19.692-8.814-19.692-19.692c0-28.767,23.402-52.169,52.169-52.169
	c10.878,0,19.692,8.814,19.692,19.692s-8.814,19.692-19.692,19.692c-7.05,0-12.784,5.742-12.784,12.784
	C133.86,187.739,125.046,196.553,114.168,196.553z"/>
<path style="fill:#41E09F;" d="M352.358,144.384c17.92,0,32.461,14.541,32.461,32.477"/>
<path style="fill:#475651;" d="M384.819,196.553c-10.87,0-19.692-8.814-19.692-19.692c0-7.05-5.742-12.784-12.768-12.784
	c-10.894,0-19.692-8.814-19.692-19.692s8.799-19.692,19.692-19.692c28.759,0,52.153,23.402,52.153,52.169
	C404.512,187.739,395.697,196.553,384.819,196.553z"/>
<path style="fill:#9AC1B2;" d="M348.908,257.158c0,54.91-44.505,99.399-99.415,99.415c-54.894,0-99.383-44.505-99.399-99.415"/>
<path style="fill:#475651;" d="M249.502,376.265c-65.654,0-119.083-53.429-119.099-119.099c0-10.878,8.806-19.7,19.677-19.7h0.016
	c10.878,0,19.692,8.814,19.692,19.684c0.016,43.961,35.769,79.73,79.707,79.73c43.953-0.016,79.722-35.777,79.722-79.722
	c0-10.878,8.814-19.692,19.692-19.692c10.878,0,19.692,8.814,19.692,19.692C368.601,322.82,315.171,376.249,249.502,376.265z"/>
<path style="fill:#9AC1B2;" d="M319.787,389.79c-38.817,38.865-101.754,38.833-140.556,0.032"/>
<path style="fill:#475651;" d="M249.502,438.619c-31.807,0-61.708-12.383-84.189-34.879c-7.696-7.696-7.696-20.157,0-27.845
	c7.696-7.688,20.157-7.696,27.845,0c15.053,15.045,35.06,23.339,56.344,23.339s41.307-8.302,56.344-23.363
	c7.696-7.711,20.157-7.704,27.845-0.016c7.704,7.688,7.712,20.157,0.024,27.845C311.233,426.22,281.324,438.619,249.502,438.619z"/>
<path style="fill:#475651;" d="M249.494,499.003c-10.878,0-19.692-8.814-19.692-19.692v-58.659c0-10.878,8.814-19.692,19.692-19.692
	c10.878,0,19.692,8.814,19.692,19.692v58.659C269.186,490.189,260.372,499.003,249.494,499.003z"/>
<path style="fill:#41E09F;" d="M295.14,246.816c0,25.198-20.449,45.631-45.647,45.631c-25.183,0.016-45.615-20.417-45.615-45.615"/>
<path style="fill:#475651;" d="M249.446,312.139c-17.416,0-33.8-6.79-46.135-19.125c-12.335-12.335-19.125-28.735-19.125-46.182
	c0-10.878,8.814-19.692,19.692-19.692s19.692,8.814,19.692,19.692c0,6.932,2.702,13.438,7.585,18.337
	c4.899,4.892,11.398,7.585,18.306,7.585h0.016c14.32,0,25.97-11.642,25.97-25.939c0-10.878,8.814-19.692,19.692-19.692
	c10.878,0,19.692,8.814,19.692,19.692c0,36.021-29.31,65.323-65.339,65.323H249.446z"/>
<path style="fill:#41E09F;" d="M384.835,322.143c0,17.936-14.557,32.477-32.477,32.477"/>
<path style="fill:#475651;" d="M352.358,374.311c-10.878,0-19.692-8.814-19.692-19.692c0-10.878,8.814-19.692,19.692-19.692
	c7.05,0,12.784-5.742,12.784-12.784c0-10.878,8.814-19.692,19.692-19.692c10.878,0,19.692,8.814,19.692,19.692
	C404.527,350.909,381.125,374.311,352.358,374.311z"/>
<path style="fill:#41E09F;" d="M146.645,354.619c-17.92,0-32.477-14.541-32.477-32.477"/>
<path style="fill:#475651;" d="M146.645,374.311c-28.767,0-52.169-23.402-52.169-52.169c0-10.878,8.814-19.692,19.692-19.692
	s19.692,8.814,19.692,19.692c0,7.05,5.742,12.784,12.784,12.784c10.878,0,19.692,8.814,19.692,19.692
	C166.337,365.497,157.523,374.311,146.645,374.311z"/>
<g>
</g>
<g>
</g>
<g>
</g>
<g>
</g>
<g>
</g>
<g>
</g>
<g>
</g>
<g>
</g>
<g>
</g>
<g>
</g>
<g>
</g>
<g>
</g>
<g>
</g>
<g>
</g>
<g>
</g>
</svg>
